<svg width="16" height="16" viewBox="0 0 16 16" fill="none" xmlns="http://www.w3.org/2000/svg">
<path d="M10.9611 10.9608C11.5075 10.4145 11.9409 9.76585 12.2366 9.05201C12.5322 8.33816 12.6844 7.57307 12.6844 6.80041C12.6844 6.02774 12.5322 5.26265 12.2366 4.5488C11.9409 3.83496 11.5075 3.18634 10.9611 2.63999C10.4148 2.09363 9.76616 1.66024 9.05231 1.36456C8.33847 1.06887 7.57337 0.916687 6.80071 0.916687C6.02805 0.916687 5.26295 1.06887 4.54911 1.36456C3.83526 1.66024 3.18665 2.09363 2.64029 2.63999C1.53688 3.7434 0.916992 5.23995 0.916992 6.80041C0.916992 8.36086 1.53688 9.85741 2.64029 10.9608C3.7437 12.0642 5.24025 12.6841 6.80071 12.6841C8.36117 12.6841 9.85772 12.0642 10.9611 10.9608ZM10.9611 10.9608L14.667 14.6667" stroke="black" stroke-width="1.5" stroke-linecap="round" stroke-linejoin="round"/>
</svg>
